<?xml version="1.0" encoding="UTF-8"?>
<svg width="203px" height="66px" viewBox="0 0 203 66" version="1.1" xmlns="http://www.w3.org/2000/svg" xmlns:xlink="http://www.w3.org/1999/xlink">
    <!-- Generator: Sketch 55 (78076) - https://sketchapp.com -->
    <title>Logo</title>
    <desc>Created with Sketch.</desc>
    <defs>
        <linearGradient x1="63.5610509%" y1="34.7573751%" x2="12.9913583%" y2="56.6384941%" id="linearGradient-1">
            <stop stop-color="#8E2339" offset="0%"></stop>
            <stop stop-color="#D90E5D" offset="100%"></stop>
        </linearGradient>
        <linearGradient x1="63.646116%" y1="34.7566173%" x2="13.1888198%" y2="56.6134074%" id="linearGradient-2">
            <stop stop-color="#D90E5D" offset="0%"></stop>
            <stop stop-color="#F04F43" offset="57%"></stop>
            <stop stop-color="#FF7B31" offset="100%"></stop>
        </linearGradient>
        <linearGradient x1="63.7518654%" y1="34.7267678%" x2="13.2052324%" y2="56.6181519%" id="linearGradient-3">
            <stop stop-color="#FF7B31" offset="0%"></stop>
            <stop stop-color="#FF7E2F" offset="4%"></stop>
            <stop stop-color="#FFBF00" offset="100%"></stop>
        </linearGradient>
        <linearGradient x1="0%" y1="49.9998665%" x2="100%" y2="49.9998665%" id="linearGradient-4">
            <stop stop-color="#3F0026" offset="0%"></stop>
            <stop stop-color="#8E2339" offset="100%"></stop>
        </linearGradient>
    </defs>
    <g id="Symbols" stroke="none" stroke-width="1" fill="none" fill-rule="evenodd">
        <g id="Navigation">
            <g transform="translate(0.000000, -121.000000)" id="Logo">
                <g transform="translate(0.000000, 121.000000)">
                    <g>
                        <path d="M14.3455537,43.1871 L30.1689739,34.089 C30.6556594,33.8085381 30.9555776,33.2903239 30.9558469,32.7294 L30.9723779,14.52 C30.9732908,13.9583523 30.6736971,13.4389541 30.1866113,13.1577358 C29.6995254,12.8765174 29.0990726,12.876275 28.611759,13.1571 L12.791645,22.2387 C12.5510826,22.3753716 12.3513661,22.5735751 12.2130619,22.8129 C12.0746733,23.0516189 12.001695,23.3224986 12.0014658,23.5983 L12.0014658,41.8242 C12.0005529,42.3858477 12.3001465,42.9052459 12.7872324,43.1864642 C13.2743183,43.4676826 13.874771,43.467925 14.3620847,43.1871 L14.3455537,43.1871 Z" id="Path" fill="url(#linearGradient-1)" fill-rule="nonzero"></path>
                        <path d="M22.2473453,47.751 L38.0674593,38.6529 C38.555941,38.3721892 38.8571865,37.8526013 38.8576384,37.29 L38.8576384,19.0641 C38.8585514,18.5024523 38.5589577,17.9830541 38.0718718,17.7018358 C37.584786,17.4206174 36.9843332,17.420375 36.4970195,17.7012 L20.6901303,26.7993 C20.4491369,26.941611 20.2505485,27.1455236 20.1148534,27.39 C19.9750144,27.6293188 19.9019506,27.9016556 19.9032573,28.1787 L19.8867264,46.4013 C19.8866751,46.9626776 20.1861592,47.4815962 20.6727145,47.7631884 C21.1592698,48.0447806 21.7592494,48.0464234 22.2473453,47.7675 L22.2473453,47.751 Z" id="Path" fill="url(#linearGradient-2)" fill-rule="nonzero"></path>
                        <path d="M30.1458306,52.3116 L45.9560261,43.23 C46.4444844,42.9508794 46.7459392,42.4321894 46.7462052,41.8704 L46.7462052,23.6445 C46.749174,23.0827153 46.450082,22.5624884 45.9626384,22.2816 C45.4741548,22.0024403 44.8740699,22.0024403 44.3855863,22.2816 L28.5919218,31.35 C28.3513595,31.4866716 28.151643,31.6848751 28.0133388,31.9242 C27.8749501,32.1629189 27.8019719,32.4337986 27.8017427,32.7096 L27.8017427,50.9355 C27.8008297,51.4971477 28.1004234,52.0165459 28.5875093,52.2977642 C29.0745951,52.5789826 29.6750479,52.579225 30.1623616,52.2984 L30.1458306,52.3116 Z" id="Path" fill="url(#linearGradient-3)" fill-rule="nonzero"></path>
                        <path d="M199.082166,54.5853 L199.082166,56.5158 C199.082166,56.8803079 199.378212,57.1758 199.743404,57.1758 L201.918876,57.1758 C202.284068,57.1758 202.580114,57.4712921 202.580114,57.8358 L202.580114,58.3704 C202.580114,58.7349079 202.284068,59.0304 201.918876,59.0304 L194.701466,59.0304 C194.336274,59.0304 194.040228,58.7349079 194.040228,58.3704 L194.040228,57.8358 C194.040228,57.4712921 194.336274,57.1758 194.701466,57.1758 L196.767834,57.1758 C197.133025,57.1758 197.429072,56.8803079 197.429072,56.5158 L197.429072,54.5853 C197.429072,54.2207921 197.133025,53.9253 196.767834,53.9253 L194.701466,53.9253 C194.336274,53.9253 194.040228,53.6298079 194.040228,53.2653 L194.040228,52.7307 C194.040228,52.3661921 194.336274,52.0707 194.701466,52.0707 L201.918876,52.0707 C202.284068,52.0707 202.580114,52.3661921 202.580114,52.7307 L202.580114,53.2653 C202.580114,53.6298079 202.284068,53.9253 201.918876,53.9253 L199.743404,53.9253 C199.378212,53.9253 199.082166,54.2207921 199.082166,54.5853 Z" id="Path" fill="#D90E5D" fill-rule="nonzero"></path>
                        <path d="M194.040228,49.0908 C194.040228,48.7262921 194.336274,48.4308 194.701466,48.4308 L199.277231,48.4308 C199.755251,48.4665863 200.23146,48.3410746 200.629463,48.0744 C201.22434,47.3961965 201.22434,46.3832035 200.629463,45.705 C200.230417,45.4408901 199.754733,45.3166774 199.277231,45.3519 L194.701466,45.3519 C194.336274,45.3519 194.040228,45.0564079 194.040228,44.6919 L194.040228,44.22 C194.040228,43.8554921 194.336274,43.56 194.701466,43.56 L199.082166,43.56 C199.63189,43.5513968 200.180544,43.6112588 200.715423,43.7382 C201.136385,43.836133 201.526885,44.0355498 201.852752,44.319 C202.159888,44.6009657 202.387836,44.9581752 202.51399,45.3552 C202.80048,46.3694298 202.80048,47.4429702 202.51399,48.4572 C202.38878,48.8556102 202.160731,49.2141156 201.852752,49.4967 C201.526885,49.7801502 201.136385,49.979567 200.715423,50.0775 C200.180544,50.2044412 199.63189,50.2643032 199.082166,50.2557 L194.701466,50.2557 C194.336274,50.2557 194.040228,49.9602079 194.040228,49.5957 L194.040228,49.0908 Z" id="Path" fill="#D90E5D" fill-rule="nonzero"></path>
                        <path d="M194.701466,41.712 C194.336274,41.712 194.040228,41.4165079 194.040228,41.052 L194.040228,37.5738 C194.00511,36.9652411 194.221388,36.3689045 194.638648,35.9238 C195.065543,35.5181804 195.640218,35.3047204 196.228925,35.3331 C196.51191,35.3250479 196.794062,35.3675149 197.062085,35.4585 C197.270103,35.5289147 197.461408,35.6412369 197.624137,35.7885 C197.772327,35.9274245 197.8856,36.0992768 197.954756,36.2901 C198.025963,36.4883483 198.065026,36.6966664 198.070472,36.9072 L198.146515,36.9072 C198.147126,36.6827785 198.183967,36.4599218 198.255619,36.2472 C198.325518,36.0223914 198.437729,35.8129503 198.586238,35.6301 C198.759392,35.4347823 198.969501,35.2755334 199.204495,35.1615 C199.496693,35.0282026 199.815713,34.9638404 200.13684,34.9734 C200.459475,34.9703741 200.779941,35.0262949 201.08241,35.1384 C201.36901,35.239584 201.633777,35.3941158 201.862671,35.5938 C202.080411,35.7890943 202.256886,36.0258232 202.381743,36.2901 C202.508639,36.5664181 202.572981,36.8672489 202.570195,37.1712 L202.570195,41.052 C202.570195,41.4165079 202.274149,41.712 201.908958,41.712 L194.701466,41.712 Z M196.876938,39.8574 C197.24213,39.8574 197.538176,39.5619079 197.538176,39.1974 L197.538176,38.0127 C197.557731,37.7998876 197.481482,37.5894131 197.330086,37.4383004 C197.17869,37.2871877 196.967821,37.211081 196.754609,37.2306 L196.387622,37.2306 C196.175446,37.2184514 195.967546,37.2935846 195.812345,37.4385 C195.669682,37.5947454 195.595831,37.8016148 195.607362,38.0127 L195.607362,39.1974 C195.607362,39.5619079 195.903408,39.8574 196.268599,39.8574 L196.876938,39.8574 Z M200.351743,39.8574 C200.716934,39.8574 201.01298,39.5619079 201.01298,39.1974 L201.01298,37.719 C201.024986,37.5064479 200.952517,37.2977469 200.811303,37.1382 C200.661004,36.9891269 200.454149,36.9111009 200.242638,36.9237 L199.826059,36.9237 C199.614613,36.9115241 199.407925,36.989487 199.257394,37.1382 C199.117418,37.2984658 199.045129,37.5066478 199.055717,37.719 L199.055717,39.1974 C199.055717,39.5619079 199.351763,39.8574 199.716954,39.8574 L200.351743,39.8574 Z" id="Shape" fill="#D90E5D" fill-rule="nonzero"></path>
                        <path d="M80.6908469,58.9314 L80.6908469,35.8743 C80.689956,35.7733804 80.7297278,35.6763356 80.8012254,35.6049718 C80.8727229,35.5336081 80.9699497,35.4939108 81.0710586,35.4948 L95.6612704,35.4948 C95.8712555,35.4948 96.0414821,35.6647079 96.0414821,35.8743 L96.0414821,39.1083 C96.039686,39.317145 95.870507,39.4860072 95.6612704,39.4878 L85.5840065,39.4878 C85.4828976,39.4869108 85.3856708,39.5266081 85.3141732,39.5979718 C85.2426757,39.6693356 85.2029039,39.7663804 85.2037948,39.8673 L85.2037948,44.88 C85.2029039,44.9809196 85.2426757,45.0779644 85.3141732,45.1493282 C85.3856708,45.2206919 85.4828976,45.2603892 85.5840065,45.2595 L94.2594463,45.2595 C94.4686829,45.2612928 94.6378619,45.430155 94.639658,45.639 L94.639658,48.873 C94.6378619,49.081845 94.4686829,49.2507072 94.2594463,49.2525 L85.5840065,49.2525 C85.4828976,49.2516108 85.3856708,49.2913081 85.3141732,49.3626718 C85.2426757,49.4340356 85.2029039,49.5310804 85.2037948,49.632 L85.2037948,58.938 C85.2037948,59.1475921 85.0335682,59.3175 84.8235831,59.3175 L81.0710586,59.3175 C80.9687823,59.318431 80.8705186,59.2778337 80.7988215,59.2050262 C80.7271244,59.1322187 80.6881511,59.0334536 80.6908469,58.9314 Z" id="Path" fill="#3F0026" fill-rule="nonzero"></path>
                        <path d="M101.337997,39.567 C100.428795,39.567 99.7708632,39.3624 99.3741205,38.9532 C98.9698865,38.5320119 98.7539728,37.9652577 98.7757003,37.3824 L98.7757003,36.6993 C98.754114,36.1174465 98.9700717,35.5517677 99.3741205,35.1318 C99.7708632,34.7226 100.428795,34.5147 101.337997,34.5147 C102.247199,34.5147 102.878681,34.7226 103.288648,35.1318 C103.701395,35.5473202 103.923915,36.1145191 103.903599,36.6993 L103.903599,37.3824 C103.924044,37.9681782 103.701573,38.5364463 103.288648,38.9532 C102.878681,39.3624 102.228464,39.567 101.337997,39.567 Z M99.5328176,41.5008 L103.153094,41.5008 C103.254203,41.4999108 103.35143,41.5396081 103.422928,41.6109718 C103.494425,41.6823356 103.534197,41.7793804 103.533306,41.8803 L103.533306,58.9314 C103.534197,59.0323196 103.494425,59.1293644 103.422928,59.2007282 C103.35143,59.2720919 103.254203,59.3117892 103.153094,59.3109 L99.5328176,59.3109 C99.4317087,59.3117892 99.3344819,59.2720919 99.2629843,59.2007282 C99.1914867,59.1293644 99.151715,59.0323196 99.1526059,58.9314 L99.1526059,41.8803 C99.151715,41.7793804 99.1914867,41.6823356 99.2629843,41.6109718 C99.3344819,41.5396081 99.4317087,41.4999108 99.5328176,41.5008 Z" id="Shape" fill="#3F0026" fill-rule="nonzero"></path>
                        <path d="M131.285456,59.3109 C129.782242,59.3109 128.637199,58.9204 127.850326,58.1394 C127.063453,57.354 126.670016,56.2386 126.670016,54.7833 L126.670016,45.3948 C126.670016,45.1852079 126.49979,45.0153 126.289805,45.0153 L124.418502,45.0153 C124.208516,45.0153 124.03829,44.8453921 124.03829,44.6358 L124.03829,41.8803 C124.037399,41.7793804 124.077171,41.6823356 124.148668,41.6109718 C124.220166,41.5396081 124.317393,41.4999108 124.418502,41.5008 L125.410358,41.5008 C126.071596,41.5008 126.521238,41.3457 126.76259,41.0388 C127.029495,40.6290981 127.154887,40.1435333 127.119658,39.6561 L127.119658,37.0161 C127.121454,36.807255 127.290633,36.6383928 127.49987,36.6366 L130.670505,36.6366 C130.88049,36.6366 131.050717,36.8065079 131.050717,37.0161 L131.050717,41.1378 C131.052513,41.346645 131.221692,41.5155072 131.430928,41.5173 L134.330456,41.5173 C134.540441,41.5173 134.710668,41.6872079 134.710668,41.8968 L134.710668,44.6523 C134.708872,44.861145 134.539693,45.0300072 134.330456,45.0318 L131.430928,45.0318 C131.220943,45.0318 131.050717,45.2017079 131.050717,45.4113 L131.050717,54.7536 C131.050717,55.4136 131.411091,55.8129 131.986368,55.8129 L134.056042,55.8129 C134.266027,55.8129 134.436254,55.9828079 134.436254,56.1924 L134.436254,58.9479 C134.437145,59.0488196 134.397373,59.1458644 134.325876,59.2172282 C134.254378,59.2885919 134.157151,59.3282892 134.056042,59.3274 L131.285456,59.3109 Z" id="Path" fill="#3F0026" fill-rule="nonzero"></path>
                        <path d="M144.582948,59.73 C143.371078,59.7520014 142.167413,59.5274385 141.045326,59.07 C140.034007,58.6495457 139.130139,58.007873 138.400375,57.1923 C137.655597,56.3365022 137.093146,55.3383374 136.74728,54.2586 C135.976103,51.7519778 135.970348,49.0728999 136.730749,46.563 C137.069673,45.4914726 137.621813,44.4992575 138.354088,43.6458 C139.068438,42.8334879 139.956537,42.1917804 140.952752,41.7681 C142.057745,41.3115584 143.245052,41.0868979 144.440782,41.1081 C145.691079,41.0767342 146.932896,41.3212524 148.07759,41.8242 C149.059469,42.2689003 149.925077,42.9341144 150.606824,43.7679 C151.282413,44.6135856 151.787631,45.5817893 152.094609,46.6191 C152.43148,47.741961 152.59863,48.9087038 152.590537,50.0808 L152.590537,51.1335 C152.590537,51.3430921 152.420311,51.513 152.210326,51.513 L141.425537,51.4734 C141.236805,51.4722564 141.056577,51.5516659 140.930249,51.6916271 C140.803922,51.8315883 140.743535,52.0187606 140.7643,52.206 C140.873404,53.2983 141.227166,54.4203 141.818974,55.0539 C142.54854,55.8327 143.631868,56.2221 145.068958,56.2221 C146.008092,56.267822 146.940121,56.0384054 147.750277,55.5621 C148.341135,55.177123 148.874329,54.7104799 149.333941,54.1761 C149.406746,54.0937021 149.51151,54.0464984 149.62158,54.0464984 C149.73165,54.0464984 149.836414,54.0937021 149.909218,54.1761 L151.76399,56.2485 C151.887923,56.3834609 151.897657,56.5874954 151.787134,56.7336 C151.040703,57.6690332 150.078856,58.4105782 148.983485,58.8951 C147.594612,59.4884887 146.093085,59.7733688 144.582948,59.73 L144.582948,59.73 Z M144.513518,44.3751 C143.463394,44.3293421 142.447966,44.7555805 141.746238,45.5367 C141.16653,46.2721125 140.821037,47.1641142 140.754381,48.0975 C140.739585,48.2814964 140.802663,48.4632692 140.928309,48.5987127 C141.053955,48.7341562 141.230686,48.8108917 141.415619,48.8103 L147.340309,48.8103 C147.524003,48.8107498 147.699605,48.7349089 147.825033,48.6009531 C147.95046,48.4669972 148.014406,48.2870004 148.001547,48.1041 C147.9532,47.179263 147.651272,46.2854488 147.128713,45.5202 C146.526987,44.7524 145.655255,44.3674 144.513518,44.3652 L144.513518,44.3751 Z" id="Shape" fill="#3F0026" fill-rule="nonzero"></path>
                        <path d="M163.157117,59.73 C161.950912,59.748396 160.753366,59.5239259 159.636026,59.07 C158.638647,58.6567402 157.75371,58.0132233 157.053893,57.1923 C156.332835,56.324541 155.79323,55.3214079 155.466922,54.2421 C155.08507,52.9866416 154.899941,51.679812 154.918094,50.3679 C154.900611,49.0679382 155.085766,47.7731689 155.466922,46.53 C155.792428,45.4603223 156.332345,44.4678351 157.053893,43.6128 C157.757239,42.7997151 158.641553,42.1623024 159.636026,41.7516 C160.753366,41.2976741 161.950912,41.073204 163.157117,41.0916 C164.95899,41.0916 166.443469,41.4876 167.620472,42.2862 C168.699771,43.0172578 169.538344,44.0505953 170.030684,45.2562 C170.108937,45.445755 170.02072,45.6629484 169.832313,45.7446 L166.962541,47.0283 C166.867612,47.0693874 166.760007,47.0700846 166.664553,47.0302306 C166.569098,46.9903766 166.494039,46.913414 166.456694,46.8171 C166.244592,46.2471893 165.893463,45.7390619 165.435081,45.3387 C164.793846,44.8218984 163.983354,44.5608629 163.160423,44.6061 C161.930521,44.6061 161.011401,44.9922 160.409674,45.7644 C159.771838,46.6447398 159.452432,47.7151879 159.503779,48.8004 L159.503779,52.0443 C159.450368,53.1246517 159.770156,54.1905598 160.409674,55.0638 C161.011401,55.8261 161.930521,56.2056 163.160423,56.2056 C164.207383,56.2056 165.016298,55.9383 165.587166,55.4037 C166.084386,54.9340906 166.487235,54.3740704 166.774088,53.7537 C166.817528,53.6640523 166.895088,53.5954714 166.989486,53.5632377 C167.083884,53.5310041 167.187277,53.537796 167.276629,53.5821 L169.951336,54.8625 C170.131514,54.9501931 170.213638,55.1615907 170.139788,55.3476 C169.630332,56.6509804 168.734007,57.7678501 167.570879,58.5486 C166.248309,59.3676992 164.712834,59.7786887 163.157117,59.73 Z" id="Path" fill="#3F0026" fill-rule="nonzero"></path>
                        <path d="M173.039316,34.0626 L176.656287,34.0626 C176.866272,34.0626 177.036498,34.2325079 177.036498,34.4421 L177.172052,42.438 C177.17595,42.60556 177.275115,42.7562756 177.427621,42.826423 C177.580126,42.8965703 177.759342,42.8739011 177.889495,42.768 C178.216811,42.5021579 178.566341,42.2647902 178.934251,42.0585 C179.912964,41.4440631 181.041424,41.1085552 182.197459,41.0883 C184.044517,41.0883 185.458464,41.6911 186.4393,42.8967 C187.420136,44.1023 187.909452,45.8194 187.907248,48.048 L187.907248,58.938 C187.908138,59.0389196 187.868367,59.1359644 187.796869,59.2073282 C187.725372,59.2786919 187.628145,59.3183892 187.527036,59.3175 L183.913371,59.3175 C183.812262,59.3183892 183.715036,59.2786919 183.643538,59.2073282 C183.57204,59.1359644 183.532269,59.0389196 183.53316,58.938 L183.53316,48.51 C183.53316,47.2362 183.305033,46.2814 182.848779,45.6456 C182.392524,45.0098 181.639815,44.6908 180.590651,44.6886 C180.142994,44.6865805 179.697449,44.7499518 179.268176,44.8767 C178.863788,44.9936984 178.48247,45.1789781 178.140765,45.4245 C177.81268,45.6599114 177.538766,45.9625654 177.337362,46.3122 C177.124837,46.6918308 177.018629,47.1215691 177.029886,47.5563 L177.029886,58.9479 C177.029886,59.1574921 176.859659,59.3274 176.649674,59.3274 L173.039316,59.3274 C172.829331,59.3274 172.659104,59.1574921 172.659104,58.9479 L172.659104,34.4421 C172.659104,34.2325079 172.829331,34.0626 173.039316,34.0626 Z" id="Path" fill="#3F0026" fill-rule="nonzero"></path>
                        <path d="M89.32,28.1919 C87.8507526,28.2145423 86.3910722,27.9522917 85.0219544,27.4197 C83.7649604,26.9174763 82.6445997,26.1259854 81.7521336,25.1097 C80.7977692,23.9868518 80.0914028,22.675717 79.6791531,21.2619 C79.1679478,19.5380781 78.9237754,17.746381 78.9550977,15.9489 C78.9268799,14.1266711 79.1709124,12.3104196 79.6791531,10.56 C80.0950417,9.11113716 80.8051683,7.76318679 81.7653583,6.6 C82.6509504,5.54893316 83.7707697,4.71939949 85.0351792,4.1778 C86.3955682,3.61002106 87.8588843,3.3291409 89.3332248,3.3528 C91.4910641,3.3528 93.2819164,3.8104 94.7057818,4.7256 C96.1222171,5.68651498 97.2438244,7.02078539 97.9458469,8.58 C98.0355259,8.76710682 97.9610728,8.99150507 97.7772313,9.0882 L94.6065961,10.7679 C94.5107427,10.8201404 94.397122,10.8291143 94.29423,10.792571 C94.191338,10.7560276 94.1089349,10.6774335 94.0676873,10.5765 C93.7508035,9.72456791 93.2189888,8.96869044 92.5236971,8.382 C91.7434365,7.722 90.6755375,7.392 89.32,7.392 C87.6206189,7.392 86.2705917,7.9651 85.2699186,9.1113 C84.2692454,10.2575 83.7700109,11.8624 83.772215,13.926 L83.772215,17.7045 C83.772215,19.7901 84.2714495,21.3895 85.2699186,22.5027 C86.2683876,23.6159 87.6184148,24.1659 89.32,24.1527 C90.5198564,24.2000627 91.6956846,23.8080712 92.6261889,23.0505 C93.2911093,22.4917907 93.8316624,21.8005036 94.2131596,21.021 C94.2935016,20.8502416 94.4416297,20.7207242 94.6217946,20.6637057 C94.8019596,20.6066872 94.9977943,20.6273473 95.1620358,20.7207 L97.8797231,22.3179 C98.0561946,22.4213455 98.121404,22.6440888 98.0285016,22.8261 C97.2610772,24.3629304 96.1254176,25.6868978 94.7223127,26.6805 C93.2896308,27.6881 91.4888599,28.1919 89.32,28.1919 Z" id="Path" fill="#3F0026" fill-rule="nonzero"></path>
                        <path d="M114.394137,27.7794 C113.539269,27.8306222 112.701357,27.5259543 112.079805,26.9379 C111.770453,26.5577882 111.529904,26.1267273 111.368974,25.6641 C111.312057,25.5226654 111.178866,25.426389 111.026482,25.4165307 C110.874098,25.4066725 110.72957,25.4849824 110.654837,25.6179 C110.251762,26.3111293 109.684058,26.8947704 109.001743,27.3174 C107.972336,27.9303415 106.787675,28.2339728 105.589756,28.1919 C103.751515,28.1919 102.33867,27.7123 101.351221,26.7531 C100.363773,25.7939 99.873355,24.5135 99.8799674,22.9119 C99.8799674,21.0639 100.541205,19.6878 101.863681,18.7836 C103.186156,17.8794 105.080603,17.4284 107.54702,17.4306 L110.228339,17.4306 C110.440684,17.4287884 110.611864,17.256455 110.611857,17.0445 L110.611857,16.1238 C110.611857,15.114 110.348464,14.3341 109.821678,13.7841 C109.294891,13.2341 108.445201,12.9591 107.272606,12.9591 C106.390937,12.9141286 105.517178,13.144849 104.773127,13.6191 C104.261352,13.9802557 103.802838,14.4112513 103.410977,14.8995 C103.344239,14.9797459 103.247589,15.0293393 103.14337,15.036814 C103.039152,15.0442887 102.93639,15.0089976 102.858844,14.9391 L100.802394,13.0911 C100.658969,12.9616053 100.632241,12.7467767 100.739577,12.5862 C101.388424,11.672429 102.230391,10.9120216 103.205993,10.3587 C104.308056,9.7251 105.766086,9.4083 107.580081,9.4083 C110.017845,9.4083 111.867106,9.9583 113.127866,11.0583 C114.388626,12.1583 115.031129,13.7379 115.055375,15.7971 L115.055375,23.8524 C115.055375,24.0656371 115.228562,24.2385 115.442199,24.2385 L116.460505,24.2385 C116.562792,24.2376198 116.661193,24.2775615 116.733833,24.3494461 C116.806473,24.4213306 116.847333,24.5192008 116.847329,24.6213 L116.847329,27.39 C116.847333,27.4920992 116.806473,27.5899694 116.733833,27.6618539 C116.661193,27.7337385 116.562792,27.7736802 116.460505,27.7728 L114.394137,27.7794 Z M107.090765,24.9942 C107.975403,25.0187987 108.848563,24.7897511 109.606775,24.3342 C110.276173,23.933208 110.672023,23.198711 110.638306,22.4202 L110.638306,20.46 C110.639188,20.3579046 110.599171,20.259688 110.527152,20.1871837 C110.455133,20.1146795 110.357079,20.0738962 110.254788,20.0739 L107.814821,20.0739 C105.515917,20.0739 104.367568,20.8021 104.369772,22.2585 L104.369772,22.8393 C104.322484,23.4632013 104.585837,24.0703715 105.07399,24.4629 C105.668429,24.8504986 106.372092,25.0367879 107.080847,24.9942 L107.090765,24.9942 Z" id="Shape" fill="#3F0026" fill-rule="nonzero"></path>
                        <path d="M199.951694,27.7794 C199.104699,27.8241551 198.276425,27.5199493 197.660505,26.9379 C197.351153,26.5577882 197.110604,26.1267273 196.949674,25.6641 C196.892757,25.5226654 196.759566,25.426389 196.607182,25.4165307 C196.454798,25.4066725 196.31027,25.4849824 196.235537,25.6179 C195.832463,26.3111293 195.264758,26.8947704 194.582443,27.3174 C193.553036,27.9303415 192.368375,28.2339728 191.170456,28.1919 C189.332215,28.1919 187.91937,27.7123 186.931922,26.7531 C185.944473,25.7939 185.450749,24.5135 185.450749,22.9119 C185.450749,21.0639 186.117497,19.6878 187.450993,18.7836 C188.78449,17.8794 190.678936,17.4284 193.134332,17.4306 L195.815651,17.4306 C196.027996,17.4287884 196.199177,17.256455 196.199169,17.0445 L196.199169,16.1238 C196.199169,15.114 195.935776,14.3341 195.40899,13.7841 C194.882204,13.2341 194.032514,12.9591 192.859919,12.9591 C191.978249,12.9141286 191.104491,13.144849 190.36044,13.6191 C189.848665,13.9802557 189.390151,14.4112513 188.99829,14.8995 C188.931552,14.9797459 188.834901,15.0293393 188.730683,15.036814 C188.626465,15.0442887 188.523703,15.0089976 188.446156,14.9391 L186.389707,13.0911 C186.246281,12.9616053 186.219553,12.7467767 186.326889,12.5862 C186.973983,11.6771116 187.812394,10.9202373 188.783388,10.3686 C189.885451,9.735 191.34348,9.4182 193.157476,9.4182 C195.595239,9.4182 197.444501,9.9682 198.705261,11.0682 C199.966021,12.1682 200.597503,13.7456 200.599707,15.8004 L200.599707,23.8524 C200.599707,24.0656371 200.772894,24.2385 200.986531,24.2385 L202.008143,24.2385 C202.11043,24.2376198 202.208831,24.2775615 202.281471,24.3494461 C202.354111,24.4213306 202.394971,24.5192008 202.394967,24.6213 L202.394967,27.39 C202.396755,27.4932384 202.356683,27.5928194 202.283846,27.6661409 C202.21101,27.7394624 202.111587,27.7803055 202.008143,27.7794 L199.951694,27.7794 Z M192.648322,24.9942 C193.53296,25.0187987 194.406121,24.7897511 195.164332,24.3342 C195.83373,23.933208 196.22958,23.198711 196.195863,22.4202 L196.195863,20.46 C196.196745,20.3579046 196.156728,20.259688 196.084709,20.1871837 C196.01269,20.1146795 195.914636,20.0738962 195.812345,20.0739 L193.372378,20.0739 C191.073474,20.0739 189.925125,20.8021 189.927329,22.2585 L189.927329,22.8393 C189.880041,23.4632013 190.143394,24.0703715 190.631547,24.4629 C191.228758,24.8525687 191.936239,25.0389476 192.648322,24.9942 L192.648322,24.9942 Z" id="Shape" fill="#3F0026" fill-rule="nonzero"></path>
                        <path d="M123.866368,12.1605 C123.86776,12.2571054 123.930945,12.3419767 124.023215,12.3711781 C124.115484,12.4003795 124.216122,12.3673548 124.273029,12.2892 C124.624935,11.8078725 125.027258,11.365371 125.473176,10.9692 C125.884991,10.6130165 126.357568,10.3335778 126.868388,10.1442 C127.470479,9.92886817 128.106849,9.82486887 128.746303,9.8373 L129.324886,9.8373 C129.428343,9.83726546 129.527426,9.8789522 129.599642,9.95289677 C129.671858,10.0268413 129.71108,10.1267709 129.708404,10.23 L129.708404,13.6059 C129.708404,13.8173146 129.536697,13.9887 129.324886,13.9887 L128.333029,13.9887 C126.84304,13.9887 125.717834,14.2087 124.95741,14.6487 C124.199666,15.0823957 123.757665,15.9108799 123.820081,16.7805 L123.820081,27.39 C123.820081,27.6014146 123.648375,27.7728 123.436564,27.7728 L119.799756,27.7728 C119.6969,27.7745703 119.597643,27.7350226 119.524283,27.6630409 C119.450923,27.5910592 119.40961,27.4926788 119.409625,27.39 L119.409625,10.23 C119.409625,10.1284751 119.450032,10.0311084 119.521955,9.95931952 C119.593879,9.8875306 119.691428,9.8472 119.793143,9.8472 L123.429951,9.8472 C123.532238,9.84631983 123.630639,9.88626154 123.703279,9.95814608 C123.775919,10.0300306 123.816779,10.1279008 123.816775,10.23 L123.866368,12.1605 Z" id="Path" fill="#3F0026" fill-rule="nonzero"></path>
                        <path d="M139.23684,28.1919 C138.050031,28.2090206 136.872185,27.9844472 135.775261,27.5319 C134.769987,27.1080798 133.874539,26.4614496 133.156759,25.641 C132.406683,24.7719659 131.83793,23.7622426 131.483827,22.671 C131.077916,21.4099937 130.880269,20.0914672 130.898632,18.7671 C130.879344,17.4480733 131.077036,16.1348261 131.483827,14.8797 C131.838499,13.7976359 132.407405,12.7977431 133.156759,11.9394 C133.879089,11.1288362 134.773708,10.4895692 135.775261,10.0683 C136.872185,9.61575275 138.050031,9.39117939 139.23684,9.4083 C140.428912,9.3922433 141.611948,9.61673393 142.714951,10.0683 C143.726402,10.4854493 144.630507,11.1250339 145.359902,11.9394 C146.108222,12.7979246 146.676009,13.7978293 147.029528,14.8797 C147.436319,16.1348261 147.634011,17.4480733 147.614723,18.7671 C147.633086,20.0914672 147.435439,21.4099937 147.029528,22.671 C146.676579,23.7620501 146.108943,24.7717852 145.359902,25.641 C144.635513,26.4657612 143.730443,27.112804 142.714951,27.5319 C141.611948,27.9834661 140.428912,28.2079567 139.23684,28.1919 L139.23684,28.1919 Z M139.23684,24.651 C140.266473,24.7061878 141.270401,24.3181045 141.994202,23.5851 C142.65544,22.8756 142.986059,21.8295 142.986059,20.4567 L142.986059,17.1204 C142.986059,15.7674 142.65544,14.7356 141.994202,14.025 C141.270401,13.2919955 140.266473,12.9039122 139.23684,12.9591 C138.218522,12.9075916 137.227232,13.2959114 136.515847,14.025 C135.854609,14.7334 135.52399,15.7652 135.52399,17.1204 L135.52399,20.46 C135.52399,21.8328 135.854609,22.8789 136.515847,23.5884 C137.227815,24.3162779 138.219028,24.7033656 139.23684,24.651 L139.23684,24.651 Z" id="Shape" fill="#3F0026" fill-rule="nonzero"></path>
                        <path d="M154.90487,27.7794 C153.390635,27.7794 152.27645,27.401 151.562313,26.6442 C150.848176,25.8874 150.49221,24.8215 150.494414,23.4465 L150.494414,2.7192 C150.494414,2.50596286 150.667601,2.3331 150.881238,2.3331 L154.518046,2.3331 C154.620336,2.33309621 154.71839,2.37387949 154.790409,2.44638372 C154.862429,2.51888796 154.902445,2.61710456 154.901564,2.7192 L154.901564,23.0802 C154.901564,23.7996 155.308225,24.2385 155.913257,24.2385 L156.905114,24.2385 C157.116925,24.2385 157.288632,24.4098854 157.288632,24.6213 L157.288632,27.39 C157.288632,27.6014146 157.116925,27.7728 156.905114,27.7728 L154.90487,27.7794 Z" id="Path" fill="#3F0026" fill-rule="nonzero"></path>
                        <path d="M162.158648,7.2171 C161.239528,7.2171 160.57829,7.0103 160.174935,6.5967 C159.768285,6.17280512 159.551176,5.60247148 159.573208,5.016 L159.573208,4.3263 C159.551176,3.73982852 159.768285,3.16949488 160.174935,2.7456 C160.573882,2.3342 161.235119,2.1274 162.158648,2.1252 C163.082177,2.123 163.736802,2.3298 164.122524,2.7456 C164.538739,3.16472512 164.763569,3.7364914 164.744088,4.3263 L164.744088,5.016 C164.764489,5.60694125 164.539589,6.18007858 164.122524,6.6 C163.710353,7.0114 163.055727,7.2171 162.158648,7.2171 Z M160.350163,9.8307 L163.986971,9.8307 C164.090464,9.83238465 164.18888,9.87575182 164.259859,9.95094788 C164.330838,10.0261439 164.368351,10.1267836 164.363876,10.23 L164.363876,27.39 C164.365645,27.4915292 164.326926,27.5896 164.256239,27.6626299 C164.185552,27.7356599 164.088691,27.7776646 163.986971,27.7794 L160.350163,27.7794 C160.245018,27.7830378 160.142993,27.7434026 160.067977,27.6697752 C159.992962,27.5961479 159.951543,27.4949942 159.95342,27.39 L159.95342,10.23 C159.948741,10.1233144 159.988923,10.0195276 160.06426,9.94370454 C160.139598,9.86788149 160.243242,9.8269155 160.350163,9.8307 Z" id="Shape" fill="#3F0026" fill-rule="nonzero"></path>
                        <path d="M167.785782,27.39 L167.785782,10.23 C167.785778,10.1279008 167.826638,10.0300306 167.899278,9.95814608 C167.971918,9.88626154 168.070319,9.84631983 168.172606,9.8472 L171.809414,9.8472 C171.911701,9.84631983 172.010101,9.88626154 172.082742,9.95814608 C172.155382,10.0300306 172.196242,10.1279008 172.196238,10.23 L172.275586,11.4378 C172.266318,11.5913042 172.364506,11.7308504 172.512317,11.7742427 C172.660127,11.817635 172.818373,11.7533695 172.893844,11.6193 C173.244549,11.1662657 173.652376,10.7603115 174.107215,10.4115 C174.9007,9.7515 175.997253,9.4215 177.396873,9.4215 C179.259359,9.4215 180.684327,10.0287 181.671775,11.2431 C182.659224,12.4575 183.156254,14.1867 183.162866,16.4307 L183.162866,27.39 C183.16287,27.4920992 183.12201,27.5899694 183.04937,27.6618539 C182.97673,27.7337385 182.878329,27.7736802 182.776042,27.7728 L179.139235,27.7728 C179.035248,27.7763812 178.934266,27.7376371 178.859456,27.6654564 C178.784647,27.5932757 178.74243,27.4938539 178.742492,27.39 L178.742492,16.8795 C178.742492,15.5958 178.511059,14.6322 178.054805,13.9887 C177.59855,13.3452 176.834821,13.0284 175.780147,13.0284 C175.332528,13.026944 174.887065,13.0903037 174.457671,13.2165 C174.049524,13.3332718 173.664726,13.5197281 173.320342,13.7676 C172.989216,14.0042799 172.712964,14.3092767 172.510326,14.6619 C172.295682,15.0444169 172.188322,15.4776156 172.199544,15.9159 L172.199544,27.39 C172.199548,27.4920992 172.158688,27.5899694 172.086048,27.6618539 C172.013408,27.7337385 171.915007,27.7736802 171.81272,27.7728 L168.175912,27.7728 C168.073056,27.7745703 167.973799,27.7350226 167.900439,27.6630409 C167.827079,27.5910592 167.785766,27.4926788 167.785782,27.39 L167.785782,27.39 Z" id="Path" fill="#3F0026" fill-rule="nonzero"></path>
                        <path d="M107.004805,58.8225 L107.004805,41.877 C107.004805,41.7763503 107.044862,41.679823 107.116166,41.608653 C107.18747,41.5374829 107.284178,41.4975 107.385016,41.4975 L110.972231,41.4975 C111.07307,41.4975 111.169778,41.5374829 111.241082,41.608653 C111.312385,41.679823 111.352443,41.7763503 111.352443,41.877 L111.431792,43.0683 C111.432169,43.2144469 111.52881,43.3429382 111.669307,43.3840936 C111.809803,43.4252489 111.960685,43.3692643 112.04013,43.2465 C112.386641,42.8000242 112.790104,42.4006449 113.240277,42.0585 C114.020537,41.4117 115.101661,41.0894 116.483648,41.0916 C118.317481,41.0916 119.721509,41.69 120.695733,42.8868 C121.669957,44.0836 122.157068,45.7908 122.157068,48.0084 L122.157068,58.8225 C122.157068,59.0320921 121.986842,59.202 121.776857,59.202 L118.189642,59.202 C117.979657,59.202 117.80943,59.0320921 117.80943,58.8225 L117.80943,48.4506 C117.80943,47.1834 117.582405,46.2341 117.128355,45.6027 C116.674305,44.9713 115.927106,44.6545 114.886759,44.6523 C114.43933,44.6501883 113.99393,44.7124277 113.564283,44.8371 C113.162403,44.9537212 112.783377,45.1378577 112.443485,45.3816 C112.1183,45.6155858 111.846694,45.9159307 111.646694,46.2627 C111.434713,46.6401508 111.328501,47.0676233 111.339218,47.5002 L111.339218,58.8225 C111.339218,59.0320921 111.168992,59.202 110.959007,59.202 L107.385016,59.202 C107.284178,59.202 107.18747,59.1620171 107.116166,59.090847 C107.044862,59.019677 107.004805,58.9231497 107.004805,58.8225 L107.004805,58.8225 Z" id="Path" fill="#3F0026" fill-rule="nonzero"></path>
                        <path d="M29.0051954,65.7822 C27.621567,65.7832184 26.2629615,65.4140048 25.0708306,64.713 L3.81534202,52.2093 C1.45500744,50.8125563 0.00552662172,48.2788326 0,45.54 L0,19.8759 C0.00341426193,17.1046297 1.48815313,14.5457963 3.89469055,13.1637 L25.0906678,1.023 C27.5027512,-0.353627111 30.4677467,-0.339786167 32.8668241,1.0593 L54.9257166,13.9557 C57.2961879,15.3482189 58.7542146,17.8862073 58.7608958,20.6316 L58.7608958,24.2451 C58.7608958,25.5208778 57.7247339,26.5551 56.4465635,26.5551 C55.1683931,26.5551 54.1322313,25.5208778 54.1322313,24.2451 L54.1322313,20.6316 C54.1299969,19.5257288 53.5429829,18.5032002 52.588241,17.9421 L30.5260423,5.0457 C29.5576865,4.4860897 28.3634372,4.4860897 27.3950814,5.0457 L6.19579805,17.16 C5.22399545,17.7200169 4.62628919,18.7558638 4.6286645,19.8759 L4.6286645,45.54 C4.63068255,46.6433503 5.21485446,47.6640509 6.16604235,48.2262 L27.4215309,60.72 C28.3904494,61.2891384 29.590856,61.2954379 30.5657166,60.7365 L52.5684039,48.0843 C53.5343189,47.5268913 54.1300655,46.4985435 54.1322313,45.3849 L54.1322313,41.2995 C54.1322313,40.0237222 55.1683931,38.9895 56.4465635,38.9895 C57.7247339,38.9895 58.7608958,40.0237222 58.7608958,41.2995 L58.7608958,45.3849 C58.7566765,48.149048 57.27935,50.7021883 54.8827362,52.0872 L32.8800489,64.7493 C31.7016727,65.4271551 30.3652622,65.7833953 29.0051954,65.7822 Z" id="Path" fill="url(#linearGradient-4)" fill-rule="nonzero"></path>
                    </g>
                </g>
            </g>
        </g>
    </g>
</svg>