<?xml version="1.0" encoding="UTF-8"?>
<svg width="25px" height="26px" viewBox="0 0 25 26" version="1.1" xmlns="http://www.w3.org/2000/svg" xmlns:xlink="http://www.w3.org/1999/xlink">
    <!-- Generator: Sketch 55.2 (78181) - https://sketchapp.com -->
    <title>Page 1</title>
    <desc>Created with Sketch.</desc>
    <defs>
        <polygon id="path-1" points="0 0.0137670139 24.9917328 0.0137670139 24.9917328 25.7795031 0 25.7795031"></polygon>
    </defs>
    <g id="Symbols" stroke="none" stroke-width="1" fill="none" fill-rule="evenodd">
        <g id="Footer" transform="translate(-743.000000, -296.000000)">
            <g id="Group-38" transform="translate(-1.000000, 0.000000)">
                <g id="Group-37" transform="translate(1.000000, 0.000000)">
                    <g id="Group-51" transform="translate(304.000000, 177.000000)">
                        <g id="Group-35" transform="translate(366.000000, 119.000000)">
                            <g id="icon-insta" transform="translate(73.000000, 0.000000)">
                                <g id="Page-1">
                                    <g id="Group-3" transform="translate(0.000000, 0.040095)">
                                        <mask id="mask-2" fill="white">
                                            <use xlink:href="#path-1"></use>
                                        </mask>
                                        <g id="Clip-2"></g>
                                        <path d="M7.33652897,1.90094583 C4.32842811,1.90094583 1.88116416,4.35602743 1.88116416,7.37379132 L1.88116416,18.4194788 C1.88116416,21.4372427 4.32842811,23.8923781 7.33652897,23.8923781 L17.6551985,23.8923781 C20.6632994,23.8923781 23.1105633,21.4372427 23.1105633,18.4194788 L23.1105633,7.37379132 C23.1105633,4.35602743 20.6632994,1.90094583 17.6551985,1.90094583 L7.33652897,1.90094583 Z M7.33652897,25.7795031 C3.2911427,25.7795031 -5.36480687e-06,22.4778417 -5.36480687e-06,18.4194788 L-5.36480687e-06,7.37379132 C-5.36480687e-06,3.31542847 3.2911427,0.0137670139 7.33652897,0.0137670139 L17.6551985,0.0137670139 C21.7005848,0.0137670139 24.9917328,3.31542847 24.9917328,7.37379132 L24.9917328,18.4194788 C24.9917328,22.4778417 21.7005848,25.7795031 17.6551985,25.7795031 L7.33652897,25.7795031 Z" id="Fill-1" fill="#3A1026" mask="url(#mask-2)"></path>
                                    </g>
                                    <path d="M12.3384818,8.35990347 C11.2334388,8.35990347 10.1823122,8.7934191 9.36621781,9.58854757 C8.47989807,10.4521344 7.97163627,11.6594122 7.97163627,12.9009191 C7.97163627,15.4035233 10.0011964,17.4396205 12.4958852,17.4396205 C14.9772693,17.4396205 16.9646084,15.4349 17.0204024,12.8757316 C17.0485139,11.5849799 16.6783959,10.4905076 15.9501234,9.71055625 C15.1671835,8.87199549 13.9611212,8.40559618 12.4623552,8.36173333 C12.4209925,8.36049549 12.3796835,8.35990347 12.3384818,8.35990347 M12.4958852,19.7461604 C8.73338519,19.7461604 5.67238734,16.6753844 5.67238734,12.9009191 C5.67238734,11.0396813 6.43483369,9.22930278 7.76428648,7.93397639 C9.06042382,6.67104931 10.7520011,6.00395729 12.5294152,6.05616215 C14.6539861,6.11832361 16.4171298,6.83670556 17.6281813,8.13370035 C18.7758745,9.36282882 19.3605848,11.0200372 19.3190612,12.9261066 C19.2793079,14.750801 18.5617114,16.4595146 17.2985139,17.7375111 C16.0182564,19.0327837 14.3126234,19.7461604 12.4958852,19.7461604" id="Fill-4" fill="#3A1026"></path>
                                    <path d="M21.0758315,5.8626059 C21.0758315,6.74432986 20.3633315,7.45915972 19.4843616,7.45915972 C18.6054453,7.45915972 17.8929453,6.74432986 17.8929453,5.8626059 C17.8929453,4.98088194 18.6054453,4.26605208 19.4843616,4.26605208 C20.3633315,4.26605208 21.0758315,4.98088194 21.0758315,5.8626059" id="Fill-6" fill="#3A1026"></path>
                                </g>
                            </g>
                        </g>
                    </g>
                </g>
            </g>
        </g>
    </g>
</svg>