<?xml version="1.0" encoding="utf-8"?>
<svg width="21" height="20" viewBox="0 0 21 20" fill="none" xmlns="http://www.w3.org/2000/svg">
<path fill-rule="evenodd" clip-rule="evenodd" d="M0.425532 6.80851H4.68085V20H0.425532V6.80851ZM11.4894 12.3404V20H7.23404V9.78723C7.23404 9.78723 7.16312 7.25768 7.16312 6.80851H11.3475L11.4894 8.62884C12.3404 7.35225 13.617 6.38298 15.3191 6.38298C18.2979 6.38298 20.4255 8.51064 20.4255 12.3404V20H16.1702V12.766C16.1702 10.6383 15.13 9.78723 13.8534 9.78723C12.5768 9.78723 11.4894 10.6383 11.4894 12.3404ZM2.52955 4.68085H2.50591C0.992908 4.68085 0 3.64066 0 2.34043C0 1.01655 1.01655 0 2.57683 0C4.11347 0 5.08274 1.01655 5.10638 2.34043C5.10638 3.64066 4.11347 4.68085 2.52955 4.68085Z" fill="#3A1026"/>
</svg>
