<?xml version="1.0" encoding="UTF-8"?>
<svg width="28px" height="21px" viewBox="0 0 28 21" version="1.1" xmlns="http://www.w3.org/2000/svg" xmlns:xlink="http://www.w3.org/1999/xlink">
    <!-- Generator: Sketch 55.2 (78181) - https://sketchapp.com -->
    <title>icon-twitter - FontAwesome</title>
    <desc>Created with Sketch.</desc>
    <defs>
        <path d="M56.1621212,5.49375 C55.1625,5.90390625 54.0767045,6.19921875 52.9564394,6.3140625 C54.1111742,5.6578125 54.9901515,4.62421875 55.4037879,3.39375 C54.3352273,4.00078125 53.1287879,4.44375 51.8706439,4.6734375 C50.8537879,3.63984375 49.4060606,3 47.8032197,3 C44.7181818,3 42.2363636,5.37890625 42.2363636,8.29921875 C42.2363636,8.709375 42.2880682,9.11953125 42.3742424,9.51328125 C37.755303,9.28359375 33.6361742,7.18359375 30.8958333,3.96796875 C30.4132576,4.75546875 30.1375,5.6578125 30.1375,6.6421875 C30.1375,8.4796875 31.1198864,10.1039062 32.6193182,11.0554688 C31.7058712,11.0226562 30.8441288,10.7765625 30.1030303,10.3828125 L30.1030303,10.4484375 C30.1030303,13.0242188 32.0160985,15.1570312 34.5668561,15.6492187 C34.1015152,15.7640625 33.6017045,15.8296875 33.1018939,15.8296875 C32.7399621,15.8296875 32.3952652,15.796875 32.0505682,15.7476563 C32.757197,17.8476562 34.8081439,19.3734375 37.2554924,19.4226562 C35.3424242,20.85 32.9467803,21.6867188 30.3443182,21.6867188 C29.8789773,21.6867188 29.4481061,21.6703125 29,21.6210938 C31.4645833,23.1304688 34.3945076,24 37.5484848,24 C47.7859848,24 53.3873106,15.928125 53.3873106,8.92265625 C53.3873106,8.69296875 53.3873106,8.46328125 53.3700758,8.23359375 C54.4558712,7.47890625 55.4037879,6.54375 56.1621212,5.49375 Z" id="path-1"></path>
    </defs>
    <g id="Symbols" stroke="none" stroke-width="1" fill="none" fill-rule="evenodd">
        <g id="Footer" transform="translate(-699.000000, -299.000000)">
            <g id="Group-38" transform="translate(-1.000000, 0.000000)">
                <g id="Group-37" transform="translate(1.000000, 0.000000)">
                    <g id="Group-51" transform="translate(304.000000, 177.000000)">
                        <g id="Group-35" transform="translate(366.000000, 119.000000)">
                            <mask id="mask-2" fill="white">
                                <use xlink:href="#path-1"></use>
                            </mask>
                            <use id="icon-twitter---FontAwesome" fill="#3A1026" xlink:href="#path-1"></use>
                        </g>
                    </g>
                </g>
            </g>
        </g>
    </g>
</svg>